<?xml version="1.0" encoding="UTF-8" standalone="no"?>
<!DOCTYPE svg PUBLIC "-//W3C//DTD SVG 1.0//EN" "http://www.w3.org/TR/2001/PR-SVG-20010719/DTD/svg10.dtd">
<svg width="26cm" height="20cm" viewBox="170 39 512 391" xmlns="http://www.w3.org/2000/svg" xmlns:xlink="http://www.w3.org/1999/xlink">
  <g>
    <rect style="fill: #ffffff" x="171" y="42" width="168" height="52"/>
    <rect style="fill: none; fill-opacity:0; stroke-width: 2; stroke: #000000" x="171" y="42" width="168" height="52"/>
    <text font-size="12.7998" style="fill: #000000;text-anchor:middle;font-family:sans-serif;font-style:normal;font-weight:normal" x="255" y="71.9">
      <tspan x="255" y="71.9">MiProyecto</tspan>
    </text>
  </g>
  <g>
    <rect style="fill: #ffffff" x="402" y="40" width="174" height="54"/>
    <rect style="fill: none; fill-opacity:0; stroke-width: 2; stroke: #000000" x="402" y="40" width="174" height="54"/>
    <text font-size="12.7998" style="fill: #000000;text-anchor:middle;font-family:sans-serif;font-style:normal;font-weight:normal" x="489" y="70.9">
      <tspan x="489" y="70.9">CMakeLists.txt</tspan>
    </text>
  </g>
  <g>
    <rect style="fill: #ffffff" x="399" y="115" width="180" height="56"/>
    <rect style="fill: none; fill-opacity:0; stroke-width: 2; stroke: #000000" x="399" y="115" width="180" height="56"/>
    <text font-size="12.7998" style="fill: #000000;text-anchor:middle;font-family:sans-serif;font-style:normal;font-weight:normal" x="489" y="146.9">
      <tspan x="489" y="146.9">src</tspan>
    </text>
  </g>
  <g>
    <rect style="fill: #ffffff" x="402" y="303" width="174" height="58"/>
    <rect style="fill: none; fill-opacity:0; stroke-width: 2; stroke: #000000" x="402" y="303" width="174" height="58"/>
    <text font-size="12.7998" style="fill: #000000;text-anchor:middle;font-family:sans-serif;font-style:normal;font-weight:normal" x="489" y="335.9">
      <tspan x="489" y="335.9">lib</tspan>
    </text>
  </g>
  <g>
    <rect style="fill: #ffffff" x="500" y="181" width="179" height="48"/>
    <rect style="fill: none; fill-opacity:0; stroke-width: 2; stroke: #000000" x="500" y="181" width="179" height="48"/>
    <text font-size="12.7998" style="fill: #000000;text-anchor:middle;font-family:sans-serif;font-style:normal;font-weight:normal" x="589.5" y="208.9">
      <tspan x="589.5" y="208.9">main.cpp</tspan>
    </text>
  </g>
  <g>
    <rect style="fill: #ffffff" x="499" y="234" width="180" height="57"/>
    <rect style="fill: none; fill-opacity:0; stroke-width: 2; stroke: #000000" x="499" y="234" width="180" height="57"/>
    <text font-size="12.7998" style="fill: #000000;text-anchor:middle;font-family:sans-serif;font-style:normal;font-weight:normal" x="589" y="266.4">
      <tspan x="589" y="266.4">config.hpp</tspan>
    </text>
  </g>
  <g>
    <rect style="fill: #ffffff" x="501" y="377" width="180" height="52"/>
    <rect style="fill: none; fill-opacity:0; stroke-width: 2; stroke: #000000" x="501" y="377" width="180" height="52"/>
    <text font-size="12.7998" style="fill: #000000;text-anchor:middle;font-family:sans-serif;font-style:normal;font-weight:normal" x="591" y="406.9">
      <tspan x="591" y="406.9">lib.cpp</tspan>
    </text>
  </g>
  <g>
    <line style="fill: none; fill-opacity:0; stroke-width: 2; stroke: #000000" x1="339" y1="68" x2="397.528" y2="67.071"/>
    <polyline style="fill: none; fill-opacity:0; stroke-width: 2; stroke: #000000" points="389.845,72.1936 399.764,67.0355 389.686,62.1948 "/>
  </g>
  <g>
    <line style="fill: none; fill-opacity:0; stroke-width: 2; stroke: #000000" x1="339" y1="68" x2="396.206" y2="139.508"/>
    <polyline style="fill: none; fill-opacity:0; stroke-width: 2; stroke: #000000" points="387.452,136.569 397.603,141.254 395.261,130.322 "/>
  </g>
  <g>
    <line style="fill: none; fill-opacity:0; stroke-width: 2; stroke: #000000" x1="339" y1="68" x2="400.962" y2="327.65"/>
    <polyline style="fill: none; fill-opacity:0; stroke-width: 2; stroke: #000000" points="394.296,321.259 401.481,329.825 404.023,318.938 "/>
  </g>
  <g>
    <line style="fill: none; fill-opacity:0; stroke-width: 2; stroke: #000000" x1="444" y1="171" x2="496.177" y2="202.679"/>
    <polyline style="fill: none; fill-opacity:0; stroke-width: 2; stroke: #000000" points="486.946,202.924 498.089,203.84 492.136,194.376 "/>
  </g>
  <g>
    <line style="fill: none; fill-opacity:0; stroke-width: 2; stroke: #000000" x1="444" y1="171" x2="496.696" y2="258.667"/>
    <polyline style="fill: none; fill-opacity:0; stroke-width: 2; stroke: #000000" points="488.411,254.589 497.848,260.584 496.982,249.437 "/>
  </g>
  <g>
    <line style="fill: none; fill-opacity:0; stroke-width: 2; stroke: #000000" x1="445.5" y1="361" x2="497.434" y2="400.301"/>
    <polyline style="fill: none; fill-opacity:0; stroke-width: 2; stroke: #000000" points="488.226,399.603 499.217,401.651 494.26,391.629 "/>
  </g>
</svg>
